<svg height="488pt" viewBox="0 -2 488.48 488" width="488pt" xmlns="http://www.w3.org/2000/svg"><path d="m79.503906 345.324219h-27.457031v-309.085938c0-6.625 5.375-12 12-12h15.457031zm0 0" fill="#6bdddd"/><path d="m147.503906 40.28125h-68v-16h68c4.417969 0 8 3.582031 8 8s-3.582031 8-8 8zm0 0" fill="#6bdddd"/><path d="m79.503906 349.324219h-27.457031c-2.207031 0-4-1.789063-4-4v-309.085938c0-8.820312 7.179687-16 16-16h15.457031c.199219 0 .390625.015625.582032.042969h67.417968c6.617188 0 12 5.382812 12 12s-5.382812 12-12 12h-64v301.042969c0 2.210937-1.792968 4-4 4zm-23.457031-8h19.457031v-301.042969c0-2.207031 1.792969-4 4-4h68c2.207032 0 4-1.792969 4-4s-1.792968-4-4-4h-68c-.199218 0-.390625-.011719-.582031-.042969h-14.875c-4.410156 0-8 3.589844-8 8zm0 0" fill="#3762cc"/><path d="m94.328125 193.117188c7.414063-13.859376 25.226563-19.371094 39.78125-12.308594l15.464844 7.503906.65625-1.21875c1.152343-2.152344 3.917969-3.007812 6.175781-1.910156 2.261719 1.09375 3.160156 3.730468 2.007812 5.882812l-1.019531 1.902344c8.601563 6.894531 12.386719 17.914062 9.667969 28.304688l3.621094 1.757812c-1.867188 1.738281-3.484375 3.769531-4.734375 6.105469l-6.769531 12.652343c-.484376.90625-.859376 1.832032-1.175782 2.765626l-8.34375-4.046876c-7.710937 3.035157-16.710937 2.964844-24.730468-.925781l-17.675782-8.578125c-14.554687-7.0625-20.34375-24.023437-12.925781-37.886718zm0 0" fill="#f9cfcf"/><path d="m144.882812 197.59375c.683594-1.277344.148438-2.839844-1.191406-3.492188l-4.050781-1.96875c-1.34375-.652343-2.988281-.144531-3.671875 1.136719-.683594 1.277344-.148438 2.84375 1.191406 3.496094l4.050782 1.964844c1.34375.652343 2.988281.144531 3.671874-1.136719zm0 0" fill="#3762cc"/><path d="m145.300781 217.6875c0-5.507812-4.6875-9.972656-10.472656-9.972656s-10.472656 4.464844-10.472656 9.972656 4.6875 9.972656 10.472656 9.972656 10.472656-4.464844 10.472656-9.972656zm0 0" fill="#f9cfcf"/><path d="m158.003906 248.554688c-.601562 0-1.199218-.132813-1.746094-.402344l-6.824218-3.308594c-8.609375 2.882812-18.078125 2.300781-26.25-1.664062l-17.675782-8.578126c-8.171874-3.964843-14.167968-10.761718-16.890624-19.144531-2.625-8.085937-1.847657-16.691406 2.183593-24.226562 8.402344-15.707031 28.621094-21.996094 45.054688-14.023438l12.347656 5.996094c2.542969-2.5 6.566406-3.261719 9.949219-1.621094 2.105468 1.023438 3.652344 2.785157 4.363281 4.96875.585937 1.820313.527344 3.734375-.15625 5.488281 7.242187 7.113282 10.675781 17.171876 9.234375 26.988282l.835938.40625c1.1875.578125 2.011718 1.703125 2.207031 3.007812.195312 1.304688-.265625 2.621094-1.234375 3.519532-1.617188 1.5-2.9375 3.207031-3.933594 5.066406l-6.765625 12.652344c-.332031.617187-.632813 1.328124-.917969 2.167968-.371094 1.082032-1.1875 1.957032-2.246094 2.398438-.488281.207031-1.011718.308594-1.535156.308594zm-8.34375-12.046876c.597656 0 1.195313.132813 1.746094.402344l4.640625 2.25 6.375-11.90625c.5625-1.058594 1.203125-2.078125 1.910156-3.054687-1.050781-.984375-1.519531-2.484375-1.140625-3.9375 2.300782-8.796875-.957031-18.285157-8.296875-24.167969-1.5-1.203125-1.933593-3.308594-1.023437-5.003906l1.015625-1.90625c0-.214844-.050781-.316406-.226563-.402344-.351562-.167969-.78125-.027344-.902344.199219l-.652343 1.222656c-1.015625 1.894531-3.339844 2.648437-5.273438 1.710937l-15.46875-7.507812c-12.625-6.121094-28.101562-1.371094-34.503906 10.601562-2.996094 5.597657-3.574219 11.984376-1.628906 17.980469 2.042969 6.292969 6.578125 11.414063 12.773437 14.417969l17.675782 8.578125c6.703124 3.253906 14.546874 3.546875 21.519531.800781.46875-.183594.964843-.277344 1.460937-.277344zm-55.332031-43.390624h.019531zm0 0" fill="#3762cc"/><path d="m86.738281 226.71875h.003907c-4.789063-7.964844-5.292969-18.285156-.410157-27.414062 1.039063-1.941407 3.445313-2.757813 5.375-1.820313l.734375.355469c-.863281-.417969-1.53125-1.058594-1.96875-1.8125 0 0-.195312-.246094-.355468-.773438-.246094-.71875-.316407-1.492187-.171876-2.257812.105469-1.121094.480469-2.574219 1.355469-4.40625.003907-.003906.003907-.003906.007813-.011719.914062-1.894531 2.375-4.195313 4.664062-6.945313 1.449219-2.105468 3.183594-3.941406 5.132813-5.492187.003906-.007813.011719-.011719.015625-.019531l.003906.003906c1.105469-.882812 2.28125-1.664062 3.507812-2.347656.523438-.304688.820313-.441406.820313-.441406 7.199219-3.707032 16.054687-4.125 23.808594-.359376l8.390625 4.070313c.390625.1875.542968.648437.339844 1.023437l-17.78125 33.242188 18.191406 8.828125 6.863281 3.332031 6.445313 8.175782c.179687.234374.210937.546874.070312.808593l-1.460938 2.730469-.523437.976562-3.585937 6.707032c-.566407 1.054687-1.273438 2.011718-2.101563 2.851562-.03125.023438-1.0625.855469-2.011719.933594-2.242187.1875-7.523437.625-12.339844 1.015625-7.152343.582031-14.332031-.601563-20.773437-3.546875-17.648437-8.066406-22.246094-17.40625-22.246094-17.40625zm0 0" fill="#4671c6"/><path d="m126.226562 251.8125c-6.59375 0-13.0625-1.375-18.910156-4.050781-17.753906-8.117188-23.375-17.78125-24.089844-19.132813-5.640624-9.5-5.800781-21.15625-.421874-31.210937.730468-1.363281 1.8125-2.445313 3.074218-3.179688-.027344-.589843.003906-1.191406.101563-1.789062.1875-1.722657.757812-3.59375 1.703125-5.5625.011718-.027344.027344-.058594.039062-.089844 1.140625-2.355469 2.839844-4.910156 5.058594-7.585937 1.601562-2.292969 3.527344-4.351563 5.722656-6.117188.003906-.003906.007813-.003906.011719-.007812.027344-.023438.054687-.042969.082031-.066407.003906 0 .007813-.003906.011719-.007812 1.347656-1.0625 2.675781-1.949219 4.066406-2.726563.503907-.292968.867188-.472656 1.003907-.539062 8.558593-4.382813 18.765624-4.523438 27.328124-.371094l8.390626 4.074219c1.164062.566406 2.058593 1.59375 2.453124 2.816406.394532 1.214844.273438 2.5625-.332031 3.695313l-15.820312 29.570312 21.308593 10.34375c.542969.261719 1.023438.648438 1.394532 1.121094l6.449218 8.175781c1.167969 1.488281 1.34375 3.519531.449219 5.179687l-5.566406 10.40625c-.734375 1.371094-1.667969 2.636719-2.769531 3.765626-.117188.121093-.25.238281-.386719.34375-.757813.597656-2.300781 1.621093-4.152344 1.773437-2.242187.1875-7.527343.625-12.347656 1.015625-1.285156.105469-2.570313.15625-3.851563.15625zm-35.882812-26.839844c.4375.773438 5.171875 8.597656 20.300781 15.511719 5.738281 2.625 12.238281 3.738281 18.785157 3.199219 4.609374-.375 9.644531-.792969 12.03125-.992188 0 0 .003906-.003906.007812-.003906.476562-.527344.882812-1.097656 1.210938-1.710938l4.5625-8.53125-4.554688-5.78125-24.226562-11.757812c-.980469-.472656-1.722657-1.328125-2.058594-2.363281-.335938-1.035157-.238282-2.164063.277344-3.121094l16.1875-30.257813-5.351563-2.597656c-6.328125-3.070312-13.890625-2.949218-20.234375.316406-.042969.023438-.085938.046876-.128906.066407-.027344.011719-.207032.097656-.503906.273437-1.117188.628906-2.121094 1.296875-3.039063 2.027344-.023437.019531-.050781.039062-.074219.058594-1.710937 1.386718-3.109375 2.898437-4.269531 4.585937-.070313.101563-.144531.199219-.222656.292969-1.867188 2.242188-3.257813 4.296875-4.132813 6.121094-.011718.023437-.023437.046875-.035156.074218-.683594 1.445313-.894531 2.417969-.949219 2.988282-.011719.117187-.027343.234375-.050781.351562-.011719.070313-.003906.136719.019531.210938.003907.019531.011719.035156.011719.042968.003906.007813.011719.015626.019531.027344.054688.097656.140625.175782.261719.230469 1.988281.96875 2.816406 3.363281 1.847656 5.347656s-3.359375 2.8125-5.34375 1.847657h-.003906l-.730469-.355469c-4.167969 7.714843-4.050781 16.488281.214844 23.578125.0625.109375.117187.214844.171875.320312zm57.902344 5.59375c0 .003906 0 .007813-.003906.007813zm-54.609375-36.984375s0 .003907.003906.003907c0 0 0-.003907-.003906-.003907zm-.003907-.007812v.003906c0-.003906 0-.003906 0-.003906zm-.007812-.007813c.003906 0 .003906 0 .003906.003906 0 0 0-.003906-.003906-.003906zm-.003906-.007812c0 .003906.003906.003906.003906.007812 0-.003906-.003906-.003906-.003906-.007812zm-.003906-.007813c0 .003907 0 .003907.003906.007813-.003906 0-.003906-.003906-.003906-.007813zm40.847656-17.367187c0 .003906-.003906.003906-.003906.003906zm0 0" fill="#3762cc"/><path d="m145.300781 217.6875c0-5.507812-4.6875-9.972656-10.472656-9.972656s-10.472656 4.464844-10.472656 9.972656 4.6875 9.972656 10.472656 9.972656 10.472656-4.464844 10.472656-9.972656zm0 0" fill="#f9cfcf"/><path d="m71.488281 56.28125v75.40625c0 1.375.472657 2.710938 1.339844 3.777344l8.585937 10.59375c1.140626 1.40625 2.851563 2.222656 4.660157 2.222656h46.851562c1.808594 0 3.523438-.816406 4.664063-2.222656l8.585937-10.59375c.863281-1.066406 1.335938-2.402344 1.335938-3.777344v-75.40625c0-3.3125-2.6875-6-6-6h-64.023438c-3.3125 0-6 2.6875-6 6zm0 0" fill="#ffea92"/><path d="m109.5 148.28125h-6.085938l.042969 22.835938c3.886719-.941407 7.992188-1.03125 12-.148438l-.039062-22.6875zm0 0" fill="#e0ebfc"/><path d="m103.457031 175.117188c-.886719 0-1.757812-.296876-2.472656-.855469-.960937-.753907-1.527344-1.914063-1.527344-3.136719l-.042969-22.835938c0-1.0625.421876-2.082031 1.171876-2.832031s1.765624-1.175781 2.828124-1.175781h12c2.207032 0 3.996094 1.789062 4 3.996094l.042969 22.683594c0 1.214843-.546875 2.363281-1.492187 3.125-.945313.757812-2.183594 1.050781-3.367188.789062-3.316406-.726562-6.839844-.683594-10.203125.128906-.308593.074219-.625.113282-.9375.113282zm3.96875-22.835938.023438 14.167969c1.332031-.097657 2.667969-.117188 4-.046875l-.023438-14.121094zm0 0" fill="#3762cc"/><path d="m79.503906 402.488281h329.621094v18.304688h-329.621094zm0 0" fill="#b9befc"/><path d="m52.046875 345.324219h-48.046875v-192.167969c0-5.09375 4.128906-9.222656 9.222656-9.222656h29.601563c5.097656 0 9.226562 4.128906 9.226562 9.222656v192.167969zm0 0" fill="#a4c9ff"/><path d="m484.480469 345.324219h-43.246094v-98.578125c0-5.023438 4.074219-9.097656 9.101563-9.097656h25.042968c5.023438 0 9.097656 4.074218 9.097656 9.097656v98.578125zm0 0" fill="#a4c9ff"/><path d="m52.125 299.566406h389.109375v45.757813h-389.109375zm0 0" fill="#b9befc"/><path d="m4 368.027344v-22.652344h480.480469v22.652344c0 5.179687-4.199219 9.378906-9.378907 9.378906h-461.722656c-5.179687 0-9.378906-4.199219-9.378906-9.378906zm0 0" fill="#a4c9ff"/><path d="m97.179688 449.144531c0 17.34375-14.0625 31.402344-31.402344 31.402344-17.34375 0-31.402344-14.058594-31.402344-31.402344s14.058594-31.402343 31.402344-31.402343c17.339844 0 31.402344 14.058593 31.402344 31.402343zm0 0" fill="#4671c6"/><path d="m65.777344 465.050781c-8.769532 0-15.90625-7.136719-15.90625-15.90625 0-8.773437 7.136718-15.910156 15.90625-15.910156 8.769531 0 15.90625 7.136719 15.90625 15.910156 0 8.769531-7.136719 15.90625-15.90625 15.90625zm0 0" fill="#a4c9ff"/><path d="m454.257812 449.144531c0 17.34375-14.058593 31.402344-31.402343 31.402344s-31.402344-14.058594-31.402344-31.402344 14.058594-31.402343 31.402344-31.402343 31.402343 14.058593 31.402343 31.402343zm0 0" fill="#4671c6"/><path d="m422.855469 465.050781c-8.769531 0-15.90625-7.136719-15.90625-15.90625 0-8.773437 7.136719-15.910156 15.90625-15.910156s15.90625 7.136719 15.90625 15.910156c0 8.769531-7.136719 15.90625-15.90625 15.90625zm0 0" fill="#a4c9ff"/><path d="m431.628906 262.910156h-276.996094l-78.40625-43.113281c-4.597656-2.527344-10.472656-1.027344-13.125 3.351563l-9.613281 15.851562c-2.652343 4.378906-1.078125 9.972656 3.519531 12.503906l86.890626 47.777344v.238281h.4375l.085937.046875.027344-.046875h287.179687c5.308594 0 9.609375-4.097656 9.609375-9.152343v-18.304688c-.003906-5.054688-4.304687-9.152344-9.609375-9.152344zm0 0" fill="#e0ebfc"/><path d="m460.480469 60.238281h-31.199219c-2.652344 0-4.800781-2.148437-4.800781-4.796875v-31.203125c0-13.253906-10.746094-24-24-24-13.253907 0-24 10.746094-24 24v31.203125c0 2.648438-2.152344 4.796875-4.800781 4.796875h-31.199219c-13.253907 0-24 10.746094-24 24 0 13.253907 10.746093 24 24 24h31.199219c2.648437 0 4.800781 2.152344 4.800781 4.800781v31.199219c0 13.253907 10.746093 24 24 24 13.253906 0 24-10.746093 24-24v-31.199219c0-2.648437 2.148437-4.800781 4.800781-4.800781h31.199219c13.253906 0 24-10.746093 24-24 0-13.253906-10.746094-24-24-24zm0 0" fill="#f9a7a7"/><path d="m52.046875 349.324219h-48.046875c-2.207031 0-4-1.789063-4-4v-192.167969c0-7.289062 5.933594-13.21875 13.222656-13.21875h29.601563c7.292969 0 13.222656 5.929688 13.222656 13.21875v192.167969c0 2.210937-1.789063 4-4 4zm-44.046875-8h40.046875v-188.167969c0-2.878906-2.339844-5.21875-5.222656-5.21875h-29.601563c-2.878906 0-5.222656 2.339844-5.222656 5.21875zm0 0" fill="#3762cc"/><path d="m484.480469 349.324219h-43.246094c-2.207031 0-4-1.789063-4-4v-98.582031c0-7.21875 5.878906-13.097657 13.101563-13.097657h25.046874c7.222657 0 13.097657 5.878907 13.097657 13.097657v98.582031c0 2.210937-1.789063 4-4 4zm-39.246094-8h35.246094v-94.582031c0-2.808594-2.289063-5.097657-5.097657-5.097657h-25.046874c-2.8125 0-5.101563 2.289063-5.101563 5.097657zm0 0" fill="#3762cc"/><path d="m475.101562 381.40625h-461.722656c-7.375 0-13.378906-6-13.378906-13.378906v-22.652344c0-2.210938 1.792969-4 4-4h480.480469c2.207031 0 4 1.789062 4 4v22.652344c0 7.375-6.003907 13.378906-13.378907 13.378906zm-467.101562-32.03125v18.652344c0 2.964844 2.410156 5.378906 5.378906 5.378906h461.722656c2.964844 0 5.378907-2.414062 5.378907-5.378906v-18.652344zm0 0" fill="#3762cc"/><path d="m304.054688 262.910156h-129.546876c-9.386718 0-16.996093-7.609375-16.996093-17v-2.683594c0-14.980468 12.140625-27.125 27.125-27.125h114.730469c2.589843 0 4.6875 2.097657 4.6875 4.6875zm0 0" fill="#6bdddd"/><path d="m412.566406 234.460938 14.800782-17.394532c.523437-.613281 1.269531-.964844 2.058593-.964844 1.523438 0 2.761719 1.296876 2.761719 2.894532v37.046875c0 3.792969-2.929688 6.863281-6.542969 6.863281h-13.078125zm0 0" fill="#a4c9ff"/><path d="m229.976562 262.910156h-41.695312c-9.480469 0-17.160156-7.683594-17.160156-17.160156s7.679687-17.160156 17.160156-17.160156h37.121094c2.527344 0 4.574218 2.046875 4.574218 4.574218zm0 0" fill="#6bdddd"/><path d="m304.054688 225.761719v37.148437h108.507812v-29.109375c0-1.210937-.992188-2.214843-2.265625-2.28125zm0 0" fill="#4671c6"/><g fill="#3762cc"><path d="m304.054688 266.910156h-129.546876c-11.578124 0-20.996093-9.417968-20.996093-21v-2.683594c0-17.164062 13.960937-31.125 31.125-31.125h114.730469c4.792968 0 8.691406 3.894532 8.691406 8.6875v42.121094c-.003906 2.210938-1.792969 4-4.003906 4zm-119.417969-46.808594c-12.75 0-23.125 10.375-23.125 23.125v2.6875c0 7.164063 5.828125 12.996094 12.996093 12.996094h125.546876v-38.117187c0-.382813-.308594-.691407-.6875-.691407zm0 0"/><path d="m229.976562 266.910156h-41.695312c-11.667969 0-21.160156-9.492187-21.160156-21.160156 0-11.664062 9.492187-21.160156 21.160156-21.160156h37.121094c4.730468 0 8.578125 3.847656 8.578125 8.574218v29.746094c-.003907 2.210938-1.792969 4-4.003907 4zm-41.695312-34.316406c-7.257812 0-13.160156 5.902344-13.160156 13.160156 0 7.253906 5.902344 13.15625 13.160156 13.15625h37.695312v-25.742187c0-.316407-.257812-.574219-.574218-.574219zm0 0"/><path d="m144.382812 303.554688c-.179687 0-.359374-.011719-.535156-.035157-1.148437-.011719-2.179687-.507812-2.898437-1.296875l-85.871094-47.214844c-3.226563-1.773437-5.515625-4.664062-6.445313-8.136718-.90625-3.390625-.398437-6.921875 1.433594-9.941406l9.609375-15.855469c3.746094-6.175781 12.035157-8.320313 18.472657-4.78125l77.507812 42.617187h275.964844c7.503906 0 13.609375 5.902344 13.609375 13.152344v18.304688c0 7.253906-6.105469 13.152343-13.609375 13.152343h-286.699219c-.179687.023438-.359375.035157-.539063.035157zm.976563-8.035157h286.265625c3.09375 0 5.609375-2.3125 5.609375-5.152343v-18.304688c0-2.839844-2.515625-5.152344-5.609375-5.152344h-276.992188c-.675781 0-1.335937-.167968-1.929687-.496094l-78.40625-43.109374c-2.730469-1.503907-6.222656-.644532-7.777344 1.917968l-9.609375 15.851563c-.691406 1.140625-.882812 2.464843-.546875 3.726562.359375 1.347657 1.273438 2.484375 2.570313 3.195313zm0 0"/><path d="m425.644531 266.910156h-13.082031c-2.207031 0-4-1.792968-4-4v-28.449218c0-.949219.339844-1.871094.957031-2.59375l14.796875-17.390626c1.289063-1.507812 3.148438-2.375 5.109375-2.375 3.726563 0 6.761719 3.09375 6.761719 6.898438v37.046875c0 5.988281-4.730469 10.863281-10.542969 10.863281zm-9.082031-8h9.082031c1.398438 0 2.542969-1.285156 2.542969-2.863281v-33.769531l-11.625 13.65625zm0 0"/><path d="m412.566406 266.910156h-108.511718c-2.207032 0-4-1.792968-4-4v-37.148437c0-1.097657.453124-2.148438 1.25-2.902344.796874-.757813 1.863281-1.148437 2.96875-1.089844l106.242187 5.753907c3.390625.1875 6.046875 2.945312 6.046875 6.28125v29.105468c.003906 2.210938-1.785156 4-3.996094 4zm-104.511718-8h100.511718v-23.480468l-100.511718-5.445313zm0 0"/></g><path d="m229.976562 239.507812 83.835938 5.5625 16.5-2.628906c.644531-.101562 1.292969-.152344 1.941406-.152344h12.046875c4.597657 0 8.773438 2.550782 10.691407 6.53125l.441406.914063c.707031 1.46875 1.070312 3.058594 1.070312 4.671875v8.503906h-126.527344zm0 0" fill="#f9cfcf"/><path d="m356.507812 266.910156h-126.53125c-2.207031 0-4-1.792968-4-4v-23.402344c0-1.109374.460938-2.164062 1.265626-2.921874.808593-.757813 1.902343-1.140626 3-1.070313l83.386718 5.535156 16.054688-2.558593c.851562-.132813 1.714844-.203126 2.570312-.203126h12.046875c6.109375 0 11.71875 3.449219 14.292969 8.796876l.441406.917968c.957032 1.984375 1.46875 4.203125 1.46875 6.402344v8.503906c.003906 2.210938-1.789062 4-3.996094 4zm-122.53125-8h118.53125v-4.503906c0-1.019531-.226562-2.003906-.675781-2.933594l-.445312-.921875c-1.246094-2.585937-4.027344-4.261719-7.085938-4.261719h-12.046875c-.4375 0-.875.035157-1.3125.101563l-16.5 2.628906c-.292968.046875-.589844.058594-.894531.042969l-79.566406-5.28125v15.128906zm0 0" fill="#3762cc"/><path d="m362.601562 203.566406h-154.054687c-13.789063 0-24.972656 12.199219-24.972656 27.242188v68.757812h204v-68.757812c0-15.042969-11.183594-27.242188-24.972657-27.242188zm2.53125 75.410156h-159.121093v-44.824218c0-5.519532 4.105469-9.996094 9.167969-9.996094h140.785156c5.066406 0 9.167968 4.476562 9.167968 10zm0 0" fill="#b9befc"/><path d="m387.574219 303.566406h-204c-2.207031 0-4-1.792968-4-4v-68.757812c0-17.226563 12.996093-31.242188 28.972656-31.242188h154.054687c15.972657 0 28.972657 14.015625 28.972657 31.242188v68.757812c0 2.207032-1.792969 4-4 4zm-200-8h196v-64.757812c0-12.816406-9.410157-23.242188-20.972657-23.242188h-154.054687c-11.5625 0-20.972656 10.425782-20.972656 23.242188zm177.558593-12.589844h-159.121093c-2.207031 0-4-1.789062-4-4v-44.824218c0-7.714844 5.90625-14 13.167969-14h140.785156c7.261718 0 13.167968 6.285156 13.167968 14v44.820312c0 2.214844-1.789062 4.003906-4 4.003906zm-155.117187-8h151.121094v-40.820312c0-3.304688-2.320313-6-5.167969-6h-140.789062c-2.847657 0-5.164063 2.695312-5.164063 6zm0 0" fill="#3762cc"/><path d="m441.234375 349.324219h-389.109375c-2.210938 0-4-1.789063-4-4v-45.757813c0-2.207031 1.789062-4 4-4h389.109375c2.210937 0 4 1.792969 4 4v45.757813c0 2.210937-1.789063 4-4 4zm-385.109375-8h381.109375v-37.757813h-381.109375zm0 0" fill="#3762cc"/><path d="m65.777344 417.742188c4.929687 0 9.574218 1.167968 13.726562 3.191406v-43.527344h-27.457031v43.527344c4.152344-2.023438 8.800781-3.191406 13.730469-3.191406zm0 0" fill="#e0ebfc"/><path d="m422.855469 417.742188c4.929687 0 9.578125 1.167968 13.730469 3.191406v-43.527344h-27.457032v43.527344c4.148438-2.023438 8.796875-3.191406 13.726563-3.191406zm0 0" fill="#e0ebfc"/><path d="m409.125 424.792969h-329.621094c-2.207031 0-4-1.792969-4-4v-18.304688c0-2.207031 1.792969-4 4-4h329.625c2.207032 0 4 1.792969 4 4v18.304688c-.003906 2.207031-1.792968 4-4.003906 4zm-325.621094-8h321.625v-10.304688h-321.625zm0 0" fill="#3762cc"/><path d="m65.777344 484.546875c-19.523438 0-35.40625-15.882813-35.40625-35.402344s15.882812-35.402343 35.40625-35.402343c19.519531 0 35.402344 15.882812 35.402344 35.402343s-15.882813 35.402344-35.402344 35.402344zm0-62.804687c-15.113282 0-27.40625 12.292968-27.40625 27.402343s12.292968 27.402344 27.40625 27.402344c15.109375 0 27.402344-12.289063 27.402344-27.402344 0-15.109375-12.292969-27.402343-27.402344-27.402343zm0 0" fill="#3762cc"/><path d="m422.855469 484.546875c-19.519531 0-35.402344-15.882813-35.402344-35.402344s15.882813-35.402343 35.402344-35.402343c19.523437 0 35.402343 15.882812 35.402343 35.402343s-15.882812 35.402344-35.402343 35.402344zm0-62.804687c-15.109375 0-27.402344 12.292968-27.402344 27.402343s12.292969 27.402344 27.402344 27.402344 27.402343-12.289063 27.402343-27.402344c0-15.109375-12.292968-27.402343-27.402343-27.402343zm0 0" fill="#3762cc"/><path d="m79.503906 424.933594c-.597656 0-1.199218-.132813-1.75-.402344-7.589844-3.703125-16.363281-3.703125-23.953125 0-1.238281.601562-2.699219.527344-3.871093-.207031-1.167969-.726563-1.882813-2.011719-1.882813-3.390625v-43.527344c0-2.207031 1.792969-4 4-4h27.457031c2.207032 0 4 1.792969 4 4v43.527344c0 1.378906-.710937 2.664062-1.878906 3.390625-.648438.40625-1.382812.609375-2.121094.609375zm-23.457031-43.527344v33.710938c6.3125-1.828126 13.148437-1.828126 19.457031 0v-33.710938zm0 0" fill="#3762cc"/><path d="m436.585938 424.933594c-.601563 0-1.199219-.132813-1.753907-.402344-7.589843-3.703125-16.363281-3.703125-23.953125 0-1.238281.601562-2.703125.527344-3.871094-.207031-1.171874-.726563-1.882812-2.011719-1.882812-3.390625v-43.527344c0-2.207031 1.792969-4 4-4h27.460938c2.207031 0 4 1.792969 4 4v43.527344c0 1.378906-.710938 2.664062-1.882813 3.390625-.644531.40625-1.382813.609375-2.117187.609375zm-13.730469-11.191406c3.320312 0 6.574219.460937 9.730469 1.375v-33.710938h-19.460938v33.710938c3.15625-.914063 6.410156-1.375 9.730469-1.375zm0 0" fill="#3762cc"/><path d="m71.488281 80.882812h76.023438v36.796876h-76.023438zm0 0" fill="#e0ebfc"/><path d="m132.925781 152.28125h-46.851562c-3.027344 0-5.859375-1.347656-7.769531-3.703125l-8.582032-10.59375c-1.4375-1.773437-2.234375-4.011719-2.234375-6.296875v-75.40625c0-5.511719 4.488281-10 10-10h64.023438c5.515625 0 10 4.488281 10 10v75.40625c0 2.285156-.792969 4.523438-2.230469 6.296875l-8.585938 10.589844c-1.90625 2.359375-4.738281 3.707031-7.769531 3.707031zm-55.4375-98c-1.101562 0-2 .898438-2 2v75.40625c0 .457031.160157.90625.449219 1.257812l8.582031 10.59375c.382813.472657.949219.742188 1.554688.742188h46.851562c.605469 0 1.171875-.269531 1.550781-.742188l8.585938-10.59375c.289062-.355468.445312-.800781.445312-1.257812v-75.40625c0-1.101562-.898437-2-2-2zm0 0" fill="#3762cc"/><path d="m109.414062 61.304688c-3.308593 0-5.992187-2.355469-6-5.265626l-.0625-33.449218c-.007812-2.914063 2.675782-5.28125 5.988282-5.285156h.011718c3.308594 0 5.992188 2.355468 6 5.265624l.0625 33.453126c.007813 2.914062-2.675781 5.277343-5.988281 5.28125 0 0-.003906 0-.011719 0zm0 0" fill="#e0ebfc"/><path d="m109.433594 65.304688s-.011719 0-.015625 0c-5.503907 0-9.988281-4.152344-10-9.257813l-.066407-33.449219c-.003906-2.539062 1.125-4.996094 3.105469-6.742187 1.859375-1.640625 4.304688-2.546875 6.878907-2.550781 5.519531 0 10.007812 4.152343 10.015624 9.257812l.066407 33.449219c.003906 2.539062-1.125 4.996093-3.105469 6.742187-1.859375 1.640625-4.300781 2.546875-6.878906 2.550782zm-.082032-44c-.625 0-1.207031.203124-1.605468.550781-.179688.160156-.394532.417969-.394532.726562l.066407 33.449219c0 .601562.855469 1.273438 2 1.273438h.011719c.613281 0 1.195312-.199219 1.589843-.546876.183594-.160156.398438-.417968.394531-.726562l-.0625-33.453125c0-.601563-.859374-1.273437-2-1.273437zm0 0" fill="#3762cc"/></svg>