<svg xmlns="http://www.w3.org/2000/svg" height="512pt" version="1.1" viewBox="-113 0 512 512.00002" width="512pt">
<g id="surface1">
<path d="M 60.746094 468.609375 L 60.746094 234.304688 L 8.679688 234.304688 L 8.679688 459.933594 C 8.679688 488.6875 31.988281 512 60.746094 512 Z M 60.746094 468.609375 " style=" stroke:none;fill-rule:nonzero;fill:rgb(35.294118%,66.666667%,90.588235%);fill-opacity:1;" />
<path d="M 60.746094 433.898438 L 60.746094 512 C 89.503906 512 112.8125 488.6875 112.8125 459.933594 L 112.8125 234.304688 L 60.746094 234.304688 Z M 60.746094 433.898438 " style=" stroke:none;fill-rule:nonzero;fill:rgb(47.058824%,72.54902%,92.156863%);fill-opacity:1;" />
<path d="M 60.746094 164.882812 L 112.8125 164.882812 L 112.8125 234.304688 L 60.746094 234.304688 Z M 60.746094 164.882812 " style=" stroke:none;fill-rule:nonzero;fill:rgb(90.196078%,90.588235%,90.980392%);fill-opacity:1;" />
<path d="M 8.679688 164.882812 L 60.746094 164.882812 L 60.746094 234.304688 L 8.679688 234.304688 Z M 8.679688 164.882812 " style=" stroke:none;fill-rule:nonzero;fill:rgb(81.960784%,82.745098%,83.137255%);fill-opacity:1;" />
<path d="M 216.949219 164.882812 L 269.015625 164.882812 L 269.015625 225.628906 L 216.949219 225.628906 Z M 216.949219 164.882812 " style=" stroke:none;fill-rule:nonzero;fill:rgb(90.196078%,90.588235%,90.980392%);fill-opacity:1;" />
<path d="M 164.882812 164.882812 L 216.949219 164.882812 L 216.949219 225.628906 L 164.882812 225.628906 Z M 164.882812 164.882812 " style=" stroke:none;fill-rule:nonzero;fill:rgb(81.960784%,82.745098%,83.137255%);fill-opacity:1;" />
<path d="M 216.949219 468.609375 L 216.949219 225.628906 L 164.882812 225.628906 L 164.882812 459.933594 C 164.882812 488.6875 188.191406 512 216.949219 512 Z M 216.949219 468.609375 " style=" stroke:none;fill-rule:nonzero;fill:rgb(35.294118%,66.666667%,90.588235%);fill-opacity:1;" />
<path d="M 216.949219 433.898438 L 216.949219 512 C 245.707031 512 269.015625 488.6875 269.015625 459.933594 L 269.015625 225.628906 L 216.949219 225.628906 Z M 216.949219 433.898438 " style=" stroke:none;fill-rule:nonzero;fill:rgb(47.058824%,72.54902%,92.156863%);fill-opacity:1;" />
<path d="M 60.746094 442.578125 C 55.953125 442.578125 52.066406 438.691406 52.066406 433.898438 L 52.066406 130.167969 C 52.066406 125.378906 55.953125 121.492188 60.746094 121.492188 C 65.539062 121.492188 69.421875 125.378906 69.421875 130.167969 L 69.421875 433.898438 C 69.421875 438.691406 65.539062 442.578125 60.746094 442.578125 Z M 60.746094 442.578125 " style=" stroke:none;fill-rule:nonzero;fill:rgb(100%,73.72549%,67.058824%);fill-opacity:1;" />
<path d="M 60.746094 485.964844 C 55.953125 485.964844 52.066406 482.082031 52.066406 477.289062 L 52.066406 468.609375 C 52.066406 463.816406 55.953125 459.933594 60.746094 459.933594 C 65.539062 459.933594 69.421875 463.816406 69.421875 468.609375 L 69.421875 477.289062 C 69.421875 482.082031 65.539062 485.964844 60.746094 485.964844 Z M 60.746094 485.964844 " style=" stroke:none;fill-rule:nonzero;fill:rgb(100%,73.72549%,67.058824%);fill-opacity:1;" />
<path d="M 216.949219 138.847656 C 178.609375 138.847656 147.527344 107.765625 147.527344 69.421875 C 147.527344 31.082031 178.609375 0 216.949219 0 C 255.289062 0 286.371094 31.082031 286.371094 69.421875 C 286.371094 74.214844 282.488281 78.101562 277.695312 78.101562 C 272.902344 78.101562 269.015625 74.214844 269.015625 69.421875 C 269.015625 40.667969 245.707031 17.355469 216.949219 17.355469 C 188.191406 17.355469 164.882812 40.667969 164.882812 69.421875 C 164.882812 98.179688 188.191406 121.492188 216.949219 121.492188 C 221.742188 121.492188 225.628906 125.378906 225.628906 130.167969 C 225.628906 134.960938 221.742188 138.847656 216.949219 138.847656 Z M 216.949219 138.847656 " style=" stroke:none;fill-rule:nonzero;fill:rgb(100%,73.72549%,67.058824%);fill-opacity:1;" />
<path d="M 216.949219 442.578125 C 212.15625 442.578125 208.269531 438.691406 208.269531 433.898438 L 208.269531 130.167969 C 208.269531 125.378906 212.15625 121.492188 216.949219 121.492188 C 221.742188 121.492188 225.628906 125.378906 225.628906 130.167969 L 225.628906 433.898438 C 225.628906 438.691406 221.742188 442.578125 216.949219 442.578125 Z M 216.949219 442.578125 " style=" stroke:none;fill-rule:nonzero;fill:rgb(100%,73.72549%,67.058824%);fill-opacity:1;" />
<path d="M 216.949219 485.964844 C 212.15625 485.964844 208.269531 482.082031 208.269531 477.289062 L 208.269531 468.609375 C 208.269531 463.816406 212.15625 459.933594 216.949219 459.933594 C 221.742188 459.933594 225.628906 463.816406 225.628906 468.609375 L 225.628906 477.289062 C 225.628906 482.082031 221.742188 485.964844 216.949219 485.964844 Z M 216.949219 485.964844 " style=" stroke:none;fill-rule:nonzero;fill:rgb(100%,73.72549%,67.058824%);fill-opacity:1;" />
<path d="M 34.710938 69.421875 C 34.710938 83.800781 46.367188 95.457031 60.746094 95.457031 L 60.746094 43.390625 C 46.367188 43.390625 34.710938 55.046875 34.710938 69.421875 Z M 34.710938 69.421875 " style=" stroke:none;fill-rule:nonzero;fill:rgb(100%,38.431373%,26.27451%);fill-opacity:1;" />
<path d="M 34.710938 69.421875 C 34.710938 55.046875 46.367188 43.390625 60.746094 43.390625 L 60.746094 8.679688 C 27.195312 8.679688 0 35.875 0 69.421875 C 0 102.972656 27.195312 130.167969 60.746094 130.167969 L 60.746094 95.457031 C 46.367188 95.457031 34.710938 83.800781 34.710938 69.421875 Z M 34.710938 69.421875 " style=" stroke:none;fill-rule:nonzero;fill:rgb(100%,38.431373%,26.27451%);fill-opacity:1;" />
<path d="M 121.492188 69.421875 C 121.492188 35.875 94.292969 8.679688 60.746094 8.679688 L 60.746094 43.390625 C 75.125 43.390625 86.78125 55.046875 86.78125 69.421875 C 86.78125 55.046875 75.125 43.390625 60.746094 43.390625 L 60.746094 130.167969 C 94.292969 130.167969 121.492188 102.972656 121.492188 69.421875 Z M 121.492188 69.421875 " style=" stroke:none;fill-rule:nonzero;fill:rgb(100%,46.666667%,32.941176%);fill-opacity:1;" />
<path d="M 60.746094 104.136719 C 41.574219 104.136719 26.035156 88.59375 26.035156 69.421875 C 26.035156 50.253906 41.574219 34.710938 60.746094 34.710938 C 79.917969 34.710938 95.457031 50.253906 95.457031 69.421875 C 95.457031 74.214844 91.570312 78.101562 86.78125 78.101562 C 81.988281 78.101562 78.101562 74.214844 78.101562 69.421875 C 78.101562 59.839844 70.332031 52.066406 60.746094 52.066406 C 51.160156 52.066406 43.390625 59.839844 43.390625 69.421875 C 43.390625 79.007812 51.160156 86.78125 60.746094 86.78125 C 65.539062 86.78125 69.421875 90.664062 69.421875 95.457031 C 69.421875 100.25 65.539062 104.136719 60.746094 104.136719 Z M 60.746094 104.136719 " style=" stroke:none;fill-rule:nonzero;fill:rgb(80.392157%,16.470588%,0%);fill-opacity:1;" />
</g>
</svg>