<?xml version="1.0" encoding="iso-8859-1"?>
<!-- Generator: Adobe Illustrator 19.0.0, SVG Export Plug-In . SVG Version: 6.00 Build 0)  -->
<svg version="1.1" id="Capa_1" xmlns="http://www.w3.org/2000/svg" xmlns:xlink="http://www.w3.org/1999/xlink" x="0px" y="0px"
	 viewBox="0 0 512 512" style="enable-background:new 0 0 512 512;" xml:space="preserve">
<g>
	<g>
		<path d="M311.432,249.286h-36.395l-15.256-46.155c-1.029-3.112-3.936-5.215-7.214-5.215c-0.001,0-0.002,0-0.002,0
			c-3.276,0-6.185,2.1-7.215,5.211L209.158,312.39l-37.562-139.417c-0.861-3.197-3.694-5.468-7.001-5.615
			c-3.291-0.143-6.33,1.865-7.472,4.973l-28.737,78.231H98.876c-4.197,0-7.6,3.402-7.6,7.6c0,4.197,3.403,7.599,7.6,7.599h34.814
			c3.187,0,6.036-1.988,7.134-4.98l22.318-60.754l37.928,140.774c0.872,3.241,3.769,5.525,7.123,5.62
			c0.073,0.002,0.145,0.003,0.217,0.003c3.267,0,6.181-2.094,7.213-5.211l36.934-111.502l9.772,29.561
			c1.03,3.113,3.938,5.215,7.216,5.215h41.887c4.197,0,7.6-3.402,7.6-7.6C319.032,252.688,315.629,249.286,311.432,249.286z"/>
	</g>
</g>
<g>
	<g>
		<path d="M467.796,107.668h-66.85c-4.197,0-7.6,3.403-7.6,7.6c0,4.197,3.403,7.6,7.6,7.6h66.85c4.197,0,7.6-3.403,7.6-7.6
			C475.397,111.07,471.994,107.668,467.796,107.668z"/>
	</g>
</g>
<g>
	<g>
		<path d="M467.796,139.603h-66.85c-4.197,0-7.6,3.403-7.6,7.6c0,4.197,3.403,7.6,7.6,7.6h66.85c4.197,0,7.6-3.403,7.6-7.6
			C475.397,143.006,471.994,139.603,467.796,139.603z"/>
	</g>
</g>
<g>
	<g>
		<path d="M467.796,171.541h-66.85c-4.197,0-7.6,3.403-7.6,7.6c0,4.197,3.403,7.6,7.6,7.6h66.85c4.197,0,7.6-3.403,7.6-7.6
			C475.397,174.944,471.994,171.541,467.796,171.541z"/>
	</g>
</g>
<g>
	<g>
		<path d="M467.796,203.477h-66.85c-4.197,0-7.6,3.402-7.6,7.6c0,4.197,3.403,7.6,7.6,7.6h66.85c4.197,0,7.6-3.402,7.6-7.6
			C475.397,206.878,471.994,203.477,467.796,203.477z"/>
	</g>
</g>
<g>
	<g>
		<path d="M467.796,235.414h-66.85c-4.197,0-7.6,3.402-7.6,7.6c0,4.198,3.403,7.6,7.6,7.6h66.85c4.197,0,7.6-3.402,7.6-7.6
			C475.397,238.816,471.994,235.414,467.796,235.414z"/>
	</g>
</g>
<g>
	<g>
		<path d="M467.796,267.351h-66.85c-4.197,0-7.6,3.403-7.6,7.6c0,4.197,3.403,7.6,7.6,7.6h66.85c4.197,0,7.6-3.402,7.6-7.6
			C475.397,270.754,471.994,267.351,467.796,267.351z"/>
	</g>
</g>
<g>
	<g>
		<path d="M467.796,299.286h-66.85c-4.197,0-7.6,3.402-7.6,7.6c0,4.198,3.403,7.6,7.6,7.6h66.85c4.197,0,7.6-3.402,7.6-7.6
			C475.397,302.688,471.994,299.286,467.796,299.286z"/>
	</g>
</g>
<g>
	<g>
		<path d="M467.796,331.223h-66.85c-4.197,0-7.6,3.402-7.6,7.6s3.403,7.6,7.6,7.6h66.85c4.197,0,7.6-3.402,7.6-7.6
			S471.994,331.223,467.796,331.223z"/>
	</g>
</g>
<g>
	<g>
		<path d="M410.574,366.333c-11.735,0-21.281,9.547-21.281,21.281c0,11.734,9.547,21.281,21.281,21.281
			c11.735,0,21.281-9.547,21.281-21.281C431.855,375.88,422.309,366.333,410.574,366.333z M410.574,393.694
			c-3.353,0-6.08-2.727-6.08-6.08s2.728-6.08,6.08-6.08c3.353,0,6.08,2.727,6.08,6.08S413.927,393.694,410.574,393.694z"/>
	</g>
</g>
<g>
	<g>
		<path d="M460.196,366.333c-11.735,0-21.281,9.547-21.281,21.281c0,11.734,9.546,21.281,21.281,21.281s21.281-9.547,21.281-21.281
			C481.477,375.88,471.931,366.333,460.196,366.333z M460.196,393.694c-3.353,0-6.08-2.727-6.08-6.08s2.727-6.08,6.08-6.08
			s6.08,2.727,6.08,6.08S463.549,393.694,460.196,393.694z"/>
	</g>
</g>
<g>
	<g>
		<path d="M468.017,55.209H282.679c-4.197,0-7.6,3.403-7.6,7.6c0,4.197,3.403,7.6,7.6,7.6h185.338
			c15.871,0,28.782,12.912,28.782,28.784v313.613c0,15.872-12.911,28.784-28.782,28.784H43.985
			c-15.872,0-28.784-12.912-28.784-28.784V99.194c0-15.872,12.912-28.784,28.784-28.784H247.21c4.197,0,7.6-3.403,7.6-7.6
			c0-4.197-3.403-7.6-7.6-7.6H43.985C19.732,55.209,0,74.94,0,99.194v313.613c0,24.254,19.732,43.985,43.985,43.985h424.033
			c24.252,0,43.983-19.732,43.983-43.985V99.194C512,74.94,492.269,55.209,468.017,55.209z"/>
	</g>
</g>
<g>
	<g>
		<path d="M367.674,250.594c4.197,0,7.6-3.402,7.6-7.6V110.069c0-11.176-9.092-20.268-20.268-20.268H54.861
			c-11.176,0-20.268,9.092-20.268,20.268v291.493c0,11.176,9.092,20.268,20.268,20.268h300.146c11.176,0,20.268-9.092,20.268-20.268
			v-123.1c0-4.198-3.403-7.6-7.6-7.6c-4.197,0-7.6,3.402-7.6,7.6v123.1c0,2.794-2.273,5.067-5.067,5.067H54.861
			c-2.794,0-5.067-2.273-5.067-5.067V110.069c0-2.794,2.273-5.067,5.067-5.067h300.146c2.794,0,5.067,2.273,5.067,5.067v132.924
			C360.074,247.191,363.477,250.594,367.674,250.594z"/>
	</g>
</g>
<g>
</g>
<g>
</g>
<g>
</g>
<g>
</g>
<g>
</g>
<g>
</g>
<g>
</g>
<g>
</g>
<g>
</g>
<g>
</g>
<g>
</g>
<g>
</g>
<g>
</g>
<g>
</g>
<g>
</g>
</svg>
